<?xml version="1.0" encoding="utf-8"?>
<!-- Generator: Adobe Illustrator 27.5.0, SVG Export Plug-In . SVG Version: 6.00 Build 0)  -->
<svg version="1.1" id="Layer_1" xmlns="http://www.w3.org/2000/svg" xmlns:xlink="http://www.w3.org/1999/xlink" x="0px" y="0px"
	 viewBox="0 0 2500 1600" style="enable-background:new 0 0 2500 1600;" xml:space="preserve">
<rect x="0" y="0" style="fill:#3A7197;" width="2500" height="1600"/>
<g>
	<linearGradient id="SVGID_1_" gradientUnits="userSpaceOnUse" x1="1259.9407" y1="-280.9087" x2="1295.4047" y2="1705.1338">
		<stop  offset="0" style="stop-color:#FFFFFF"/>
		<stop  offset="1" style="stop-color:#63A6DB"/>
	</linearGradient>
	<circle style="opacity:0.06;fill:url(#SVGID_1_);" cx="1278.091" cy="735.554" r="621.481"/>
	
		<linearGradient id="SVGID_00000083082427965027206800000008369130416259137674_" gradientUnits="userSpaceOnUse" x1="612.3635" y1="52.2627" x2="629.8091" y2="1029.2461">
		<stop  offset="0" style="stop-color:#FFFFFF"/>
		<stop  offset="1" style="stop-color:#63A6DB"/>
	</linearGradient>
	
		<circle style="opacity:0.06;fill:url(#SVGID_00000083082427965027206800000008369130416259137674_);" cx="621.292" cy="552.286" r="305.722"/>
	
		<linearGradient id="SVGID_00000105423138386363604890000007464818122748396967_" gradientUnits="userSpaceOnUse" x1="1982.7719" y1="522.5632" x2="1993.9474" y2="1148.411">
		<stop  offset="0" style="stop-color:#FFFFFF"/>
		<stop  offset="1" style="stop-color:#63A6DB"/>
	</linearGradient>
	
		<circle style="opacity:0.06;fill:url(#SVGID_00000105423138386363604890000007464818122748396967_);" cx="1988.491" cy="842.874" r="195.843"/>
</g>
<ellipse style="fill:#2A5C81;" cx="1286.091" cy="1441.8" rx="568.45" ry="25.566"/>
<g>
	<defs>
		<polygon id="XMLID_00000089549949109702868560000006463800455275382666_" points="1467.637,1333.695 1467.637,561.958 
			1204.196,561.958 1204.196,562.351 1203.97,561.958 932.01,718.974 1035.203,897.709 1204.196,800.141 1204.196,1333.695 
			1047.662,1333.695 1047.662,1438.875 1624.172,1438.875 1624.172,1333.695 		"/>
	</defs>
	<use xlink:href="#XMLID_00000089549949109702868560000006463800455275382666_"  style="overflow:visible;fill:#FFDE17;"/>
	<clipPath id="XMLID_00000021110786433757277450000005957934339559387803_">
		<use xlink:href="#XMLID_00000089549949109702868560000006463800455275382666_"  style="overflow:visible;"/>
	</clipPath>
	<path style="clip-path:url(#XMLID_00000021110786433757277450000005957934339559387803_);fill:#EAC618;" d="M1071.947,552.286
		c0,0,107.002,553.214,469.813,651.774s0,0,0,0l119.266,28.877l-7.731,248.883H963.411l-70.361-795.544L1071.947,552.286z"/>
</g>
<g>
	<path style="fill:#072541;" d="M1159.565,1315.935l15.462,9.166l18.369,1.553c5.481,0.463,10.648,2.756,14.669,6.509l0,0
		l-46.925,11.084l-4.372-4.079l-2.545,5.713l-7.378,1.743l0,0c-3.943-8.533-6.126-17.772-6.417-27.167l0,0L1159.565,1315.935z"/>
	<path style="fill:#072541;" d="M849.524,1410.96l12.941,12.475l17.52,5.734c5.228,1.711,9.729,5.13,12.78,9.706l0,0h-48.216
		l-3.317-4.975l-3.791,4.975h-7.581l0,0c-1.876-9.21-1.876-18.704,0-27.915v0H849.524z"/>
	<g>
		<path style="fill:#63A6DB;" d="M996.182,506.722l-5.405-7.5c-3.148-4.369-2.635-10.382,1.208-14.154l0,0
			c2.918-2.865,7.195-3.856,11.076-2.566l3.244,1.078c4.148,1.379,7.072,5.102,7.428,9.459l0.067,0.82
			c0.125,1.529-0.075,3.068-0.585,4.515l-2.448,6.938L996.182,506.722z"/>
		<path style="fill:#3A7197;" d="M994.475,496.219c0,0,2.88,0.627,5.505-6.357c0,0,2.76,4.179-0.815,8.396
			c0,0,7.998,0.771,10.425-1.707c0,0-2.623,5.883-8.189,5.574C995.834,501.816,994.475,496.219,994.475,496.219z"/>
	</g>
	<path style="fill:#072541;" d="M906.762,752.405l114.41-80.056c0,0-31.139-89.068-28.13-166.535l22.019-2.377l54.371,154.276
		c3.401,9.649,3.35,20.179-0.143,29.795v0c-2.566,7.063-6.889,13.355-12.562,18.283l-96.098,91.341
		C960.63,797.132,951.19,779.222,906.762,752.405z"/>
	<path style="fill:#072541;" d="M847.804,947.554l-21.719,464.959l30.238-0.368c0,0,63.856-312.555,68.618-486.256L847.804,947.554z
		"/>
	<path style="fill:#072541;" d="M885.935,998.441l53.807-52.679c53.437,33.567,92.095,63.354,147.903,108.718
		c13.392,10.886,22.916,25.816,27.12,42.554c28.582,113.787,49.484,217.803,49.484,217.803l-27.647,12.253l-81.58-217.835
		L885.935,998.441z"/>
	<g>
		<path style="fill:#63A6DB;" d="M942.147,657.747l-48.904,2.529l-0.677,91.648l28.827-1.491l-1.711-33.07l13.651,0.752
			c5.597,0.308,10.226-4.305,9.936-9.903l-0.684-13.23l8.927-0.462c1.067-0.055,1.674-1.243,1.095-2.141l-9.206-14.254
			L942.147,657.747z"/>
		<path style="fill:#072541;" d="M910.596,640.655c-2.938-0.185-5.884,0.215-8.667,1.175h0c-11.337,3.913-17.542,16.1-14.036,27.569
			l5.158,16.876c0,0,4.149-1.314,7.749-4.928c-1.486-0.28-2.985-1.527-3.827-3.373c-1.201-2.634-0.61-5.483,1.32-6.363
			c1.93-0.88,4.469,0.542,5.67,3.176c0.205,0.449,0.353,0.904,0.456,1.354c1.081-2.391,1.728-5.28,1.548-8.76l36.449-5.263
			c0,0,9.602-4.768,8.871-18.904L910.596,640.655z"/>
	</g>
	<path style="fill:#072541;" d="M917.014,735.561c0,0,68.899,63.761,46.397,264.968l30.248-7.861
		C993.659,992.667,1037.95,772.054,917.014,735.561z"/>
	
		<linearGradient id="SVGID_00000118376958896773016030000011548783157201321403_" gradientUnits="userSpaceOnUse" x1="3324.1104" y1="683.371" x2="3337.7036" y2="974.6508" gradientTransform="matrix(1 0 0 1 -2406.4927 0)">
		<stop  offset="0" style="stop-color:#FFFFFF"/>
		<stop  offset="1" style="stop-color:#63A6DB"/>
	</linearGradient>
	<path style="fill:url(#SVGID_00000118376958896773016030000011548783157201321403_);" d="M920.623,735.554
		c0,0,85.347,31.581,49.301,226.322c0,0-24.543,18.338-91.46,10.676c0,0,22.406-80.083,20.846-116.727
		c-1.559-36.644-6.624-120.271-6.624-120.271H920.623z"/>
	<path style="fill:#072541;" d="M728.378,565.208c58.092,110.941,54.276,142.414,54.276,142.414l109.034,28.123
		c0.333-0.063,0.666-0.13,0.999-0.191c0,0,61.927,141.222,1.253,295.197c0,0-62.203-6.88-107.635-36.74
		c0,0,52.071-79.542,64.976-153.433c2.253-15.27,2.986-33.994,3.082-50.51l-81.131-28.692c-9.335-3.837-17.462-10.123-23.523-18.193
		v0c-4.813-6.408-8.196-13.774-9.921-21.6l-31.995-150.202L728.378,565.208z"/>
	<path style="fill:#174171;" d="M917.014,735.561c0.941-0.306,7.227,9.598,7.74,10.345c6.367,9.272,11.962,19.081,16.834,29.215
		c6.918,14.388,12.359,29.498,16.067,45.03c1.869,7.827,3.296,15.76,4.251,23.75c0.875,7.313,1.804,14.891,1.411,22.357
		c-0.145,2.765-0.852,17.3-5.407,17.172c-2.379-0.068-2.953-4.978-3.297-6.654c-1.674-8.164-1.163-16.395-1.82-24.649
		c-0.697-8.749-1.875-17.459-3.494-26.086c-4.878-26.004-16.482-61.045-38.609-90.487
		C910.691,735.554,917.014,735.561,917.014,735.561z"/>
	<g>
		<path style="fill:#FFDE17;" d="M926.781,415.548l-75.929,52.26c0,0,66.021,60.825,72.551,123.519
			C923.403,591.327,979.767,491.978,926.781,415.548z"/>
		
			<rect x="532.967" y="537.041" transform="matrix(0.8236 -0.5672 0.5672 0.8236 -173.0368 519.7646)" style="fill:#072541;" width="432.129" height="2.014"/>
	</g>
	<path style="fill:#63A6DB;" d="M726.477,565.778l1.054-8.238c0.411-3.21-0.829-6.411-3.296-8.506l0,0
		c-2.524-2.144-5.982-2.822-9.129-1.789l-4.235,1.39c-2.555,0.839-4.636,2.719-5.728,5.176l0,0c-1.223,2.751-1.071,5.918,0.408,8.54
		l4.681,8.298L726.477,565.778z"/>
</g>
<g>
	<path style="fill:#072541;" d="M1630.484,703.869l-104.768-48.335c0,0,30.665-66.229,47.385-127.805l-20.353-6.987l-65.008,112.568
		c-7.842,14.841-8.411,32.466-1.542,47.781l0,0c3.602,8.031,9.094,15.07,16.008,20.516l82.076,46.726
		C1584.282,748.333,1628.116,726.509,1630.484,703.869z"/>
	<g>
		<path style="fill:#072541;" d="M1668.771,937.823l-119.399,474.882l-31.727-0.386c0,0,53.931-326.503,48.934-508.753
			L1668.771,937.823z"/>
		<path style="fill:#072541;" d="M1703.1,926.296l22.788,487.844l-31.726-0.386c0,0-66.999-327.939-71.995-510.19L1703.1,926.296z"
			/>
		<path style="fill:#072541;" d="M1524.877,1409.356l-13.578,13.089l-18.382,6.016c-5.485,1.795-10.208,5.382-13.409,10.184l0,0
			h50.59l3.48-5.22l3.977,5.22h7.954l0,0c1.968-9.664,1.968-19.625,0-29.289v0H1524.877z"/>
		<path style="fill:#072541;" d="M1701.296,1412.511l-13.578,13.089l-18.382,6.016c-5.485,1.795-10.208,5.382-13.409,10.184l0,0
			h50.59l3.48-5.22l3.977,5.22h7.954v0c1.968-9.664,1.968-19.625,0-29.289l0,0H1701.296z"/>
		<g>
			<path style="fill:#63A6DB;" d="M1603.895,635.618c0.133-13.527,10.43-25.125,23.926-26.049c0.471-0.032,0.944-0.052,1.42-0.06
				c11.713-0.18,22.32,7.323,26.108,18.515c1.892,31.998,3.784,63.995,5.677,95.993h-30.287v-34.745l-14.263,1.528
				c-5.848,0.626-10.948-3.956-10.948-9.838v-13.9h-9.379c-1.12,0-1.822-1.212-1.263-2.183l8.873-15.434L1603.895,635.618z"/>
			<path style="fill:#072541;" d="M1664.188,628.023l-2.739,9.269l-4.49,17.963c0,0-4.418-1.151-8.387-4.743
				c1.542-0.374,3.045-1.762,3.827-3.742c1.116-2.825,0.342-5.779-1.728-6.596s-4.653,0.81-5.769,3.635
				c-0.19,0.481-0.321,0.966-0.405,1.444c-1.262-2.447-2.096-5.439-2.096-9.095c0,0,0.43-14.62,6.732-18.332L1664.188,628.023z"/>
		</g>
		<path style="fill:#072541;" d="M1630.484,703.869c0,0-72.29,66.9-48.681,278.01l-31.737-8.248
			C1550.067,973.631,1503.596,742.159,1630.484,703.869z"/>
		
			<linearGradient id="SVGID_00000034777627051844356520000013322615826973202355_" gradientUnits="userSpaceOnUse" x1="277.3803" y1="654.2463" x2="190.6457" y2="958.5776" gradientTransform="matrix(1 0 0 1 1405.9395 0)">
			<stop  offset="0" style="stop-color:#FFFFFF"/>
			<stop  offset="1" style="stop-color:#63A6DB"/>
		</linearGradient>
		<path style="fill:url(#SVGID_00000034777627051844356520000013322615826973202355_);" d="M1630.484,703.869
			c0,0-93.335,33.128-55.514,237.454c0,0,25.751,19.241,95.962,11.201c0,0-23.508-84.025-21.873-122.472
			c1.636-38.447,12.828-115.967,12.828-115.967L1630.484,703.869z"/>
		<path style="fill:#072541;" d="M1699.454,814.055c13.54,77.528,68.174,160.985,68.174,160.985
			c-47.669,31.329-112.933,38.548-112.933,38.548c-63.661-161.554-8.739-304.664-8.739-304.664l0,0
			c17.482,5.11,34.387,11.84,50.506,20.073C1696.462,728.998,1693.872,776.224,1699.454,814.055z"/>
		<path style="fill:#174171;" d="M1630.484,703.869c-0.988-0.321-7.583,10.07-8.121,10.854c-6.68,9.728-12.55,20.02-17.663,30.653
			c-7.259,15.096-12.967,30.95-16.858,47.246c-1.961,8.212-3.458,16.535-4.461,24.918c-0.918,7.673-1.893,15.624-1.481,23.457
			c0.153,2.901,0.894,18.151,5.674,18.018c2.496-0.071,3.099-5.223,3.459-6.981c1.757-8.566,1.22-17.202,1.91-25.863
			c0.731-9.18,1.968-18.319,3.666-27.37c5.119-27.284,16.042-62.291,39.258-93.182
			C1635.867,705.62,1630.484,703.869,1630.484,703.869z"/>
		<path style="fill:#072541;" d="M1605.528,669.814h14.816l10.395,19.458c0,0-11.692,6.281-18.913,3.503
			C1604.604,689.998,1602.378,677.961,1605.528,669.814z"/>
		<path style="fill:#174171;" d="M1644.909,643.281l-27.586-0.307l-0.006,0.545c-0.602-3.967-3.519-6.979-7.033-6.979
			c-3.95,0-7.153,3.802-7.153,8.492c0,4.69,3.203,8.492,7.153,8.492c3.951,0,7.153-3.802,7.153-8.492
			c0-0.34-0.021-0.672-0.054-1.001l27.514,0.306L1644.909,643.281z"/>
	</g>
	<path style="fill:#072541;" d="M1646.234,711.406l100.109-49.871c0,0-30.7-71.23-47.877-134.49l22.381-7.683l65.313,116.149
		c8.057,15.246,8.641,33.353,1.584,49.087v0c-3.7,8.25-9.343,15.482-16.446,21.077l-81.255,53.768
		C1690.043,759.443,1648.667,734.666,1646.234,711.406z"/>
	<path style="fill:#63A6DB;" d="M1555.954,521.842l-5.14-4.008c-3.184-2.483-5.365-6.032-6.141-9.995l-1.101-5.626l7.543,8.533
		l6.712-1.877l8.304,2.068c2.748,0.684,4.994,2.657,6.028,5.293l0,0c1.101,2.807,0.678,5.983-1.118,8.404l-1.412,1.903
		L1555.954,521.842z"/>
	<g>
		<path style="fill:#072541;" d="M1550.299,513.397l-24.497-40.725c-1.25-2.079-0.579-4.778,1.5-6.028l0,0
			c2.079-1.251,4.778-0.579,6.028,1.5l24.497,40.725c1.25,2.079,0.579,4.778-1.5,6.028l0,0
			C1554.248,516.147,1551.549,515.476,1550.299,513.397z"/>
		<path style="fill:#FFDE17;" d="M1720.661,451.122c9.567-5.755,20.806-12.515,20.806-12.515l-25.411-42.244l-9.294-15.45
			l-25.411-42.244c0,0-11.239,6.761-20.806,12.515l-25.797-42.887l-10.652,6.408c-21.166,12.732-33.305,35.952-31.681,60.598
			l3.627,55.032c-0.66,1.362-1.389,2.712-2.215,4.048c-5.766,9.327-12.619,17.967-20.352,25.737
			c-2.479,2.491-29.706,25.379-30.724,23.688l1.706,2.836l2.138,3.555l1.706,2.836c13.108-8.147,27.466-14.269,42.441-18.013
			c7.892-1.973,15.925-3.603,24.064-4.061c1.857-0.104,3.667-0.084,5.454,0.007l47.269,29.21
			c21.012,12.985,47.214,13.142,68.379,0.41l10.652-6.408L1720.661,451.122z M1597.433,374.972
			c-1.5-22.759,9.71-44.201,29.254-55.958l6.342-3.815l23.205,38.577c-5.104,3.07-8.949,5.383-8.95,5.384
			c-13.446,8.088-25.034,19.162-33.725,32.227c-4.377,6.58-8.016,13.648-10.829,21.033c-0.868,2.279-1.628,4.539-2.383,6.777
			L1597.433,374.972z M1733.317,496.277c-19.545,11.757-43.739,11.612-63.143-0.379l-38.006-23.486c1.935,0.31,3.887,0.625,5.88,0.9
			c15.757,2.177,31.956,0.764,47.099-4.106c7.775-2.5,15.257-5.899,22.255-10.109c0,0,3.845-2.313,8.95-5.384l23.308,38.748
			L1733.317,496.277z"/>
		<polygon style="fill:#072541;" points="1693.599,399.467 1683.339,415.447 1690.686,432.958 1672.318,428.138 1657.933,440.537 
			1656.842,421.578 1640.605,411.729 1658.298,404.832 1662.648,386.346 1674.675,401.043 		"/>
	</g>
	<path style="fill:#63A6DB;" d="M1718.488,520.172l1.231-8.592c0.373-2.605-0.567-5.225-2.511-6.998l-0.846-0.772
		c-2.57-2.345-6.139-3.256-9.519-2.432l-12.681,3.094l0,0c-1.313,7.664,1.053,15.499,6.388,21.155l0.5,0.531L1718.488,520.172z"/>
	<path style="fill:#63A6DB;" d="M1564.493,510.529l-8.539-4.773l-3.69-4.329c-1.033-1.212-2.483-1.992-4.063-2.186l-1.583-0.194
		l2.766,7.053c0.599,1.528,1.55,2.892,2.776,3.983l7.085,6.304L1564.493,510.529z"/>
</g>
</svg>
